<?xml version="1.0" encoding="UTF-8"?>
<svg xmlns="http://www.w3.org/2000/svg" xmlns:xlink="http://www.w3.org/1999/xlink" width="16px" height="16px" viewBox="0 0 16 16" version="1.1">
<g id="surface1">
<path style=" stroke:none;fill-rule:nonzero;fill:rgb(60.392159%,17.647059%,18.431373%);fill-opacity:1;" d="M 14.820312 10.984375 C 14.605469 10.984375 14.5 10.832031 14.421875 10.71875 C 14.339844 10.605469 14.300781 10.558594 14.222656 10.558594 C 14.144531 10.558594 14.105469 10.605469 14.023438 10.71875 C 13.945312 10.832031 13.835938 10.984375 13.621094 10.984375 C 13.40625 10.984375 13.296875 10.832031 13.21875 10.71875 C 13.140625 10.605469 13.101562 10.558594 13.023438 10.558594 C 12.945312 10.558594 12.90625 10.605469 12.824219 10.71875 C 12.742188 10.832031 12.636719 10.984375 12.421875 10.984375 C 12.207031 10.984375 12.097656 10.832031 12.019531 10.71875 C 11.941406 10.605469 11.898438 10.558594 11.820312 10.558594 C 11.753906 10.558594 11.695312 10.503906 11.695312 10.433594 C 11.695312 10.367188 11.753906 10.308594 11.820312 10.308594 C 12.039062 10.308594 12.144531 10.460938 12.222656 10.574219 C 12.304688 10.6875 12.34375 10.734375 12.421875 10.734375 C 12.5 10.734375 12.539062 10.6875 12.621094 10.574219 C 12.699219 10.460938 12.808594 10.308594 13.023438 10.308594 C 13.238281 10.308594 13.34375 10.460938 13.421875 10.574219 C 13.503906 10.6875 13.542969 10.734375 13.621094 10.734375 C 13.699219 10.734375 13.738281 10.6875 13.820312 10.574219 C 13.898438 10.460938 14.007812 10.308594 14.222656 10.308594 C 14.4375 10.308594 14.546875 10.460938 14.625 10.574219 C 14.703125 10.6875 14.742188 10.734375 14.820312 10.734375 C 14.890625 10.734375 14.945312 10.789062 14.945312 10.859375 C 14.945312 10.929688 14.890625 10.984375 14.820312 10.984375 Z M 14.820312 10.203125 C 14.605469 10.203125 14.5 10.050781 14.421875 9.9375 C 14.339844 9.824219 14.300781 9.777344 14.222656 9.777344 C 14.144531 9.777344 14.105469 9.824219 14.023438 9.9375 C 13.945312 10.050781 13.835938 10.203125 13.621094 10.203125 C 13.40625 10.203125 13.296875 10.050781 13.21875 9.9375 C 13.140625 9.824219 13.101562 9.777344 13.023438 9.777344 C 12.945312 9.777344 12.90625 9.824219 12.824219 9.9375 C 12.742188 10.050781 12.636719 10.203125 12.421875 10.203125 C 12.207031 10.203125 12.097656 10.050781 12.019531 9.9375 C 11.941406 9.824219 11.898438 9.777344 11.820312 9.777344 C 11.753906 9.777344 11.695312 9.722656 11.695312 9.652344 C 11.695312 9.585938 11.753906 9.527344 11.820312 9.527344 C 12.039062 9.527344 12.144531 9.679688 12.222656 9.792969 C 12.304688 9.90625 12.34375 9.953125 12.421875 9.953125 C 12.5 9.953125 12.539062 9.90625 12.621094 9.792969 C 12.699219 9.679688 12.808594 9.527344 13.023438 9.527344 C 13.238281 9.527344 13.34375 9.679688 13.421875 9.792969 C 13.503906 9.90625 13.542969 9.953125 13.621094 9.953125 C 13.699219 9.953125 13.738281 9.90625 13.820312 9.792969 C 13.898438 9.679688 14.007812 9.527344 14.222656 9.527344 C 14.4375 9.527344 14.546875 9.679688 14.625 9.792969 C 14.703125 9.90625 14.742188 9.953125 14.820312 9.953125 C 14.890625 9.953125 14.945312 10.007812 14.945312 10.078125 C 14.945312 10.148438 14.890625 10.203125 14.820312 10.203125 Z M 4.085938 4.421875 C 3.871094 4.421875 3.765625 4.265625 3.6875 4.15625 C 3.605469 4.039062 3.566406 3.996094 3.488281 3.996094 C 3.410156 3.996094 3.371094 4.042969 3.289062 4.15625 C 3.210938 4.265625 3.101562 4.421875 2.886719 4.421875 C 2.671875 4.421875 2.5625 4.265625 2.484375 4.15625 C 2.40625 4.039062 2.367188 3.996094 2.289062 3.996094 C 2.210938 3.996094 2.171875 4.042969 2.089844 4.15625 C 2.007812 4.265625 1.902344 4.421875 1.6875 4.421875 C 1.472656 4.421875 1.363281 4.265625 1.285156 4.15625 C 1.207031 4.039062 1.164062 3.996094 1.085938 3.996094 C 1.019531 3.996094 0.960938 3.9375 0.960938 3.871094 C 0.960938 3.800781 1.019531 3.746094 1.085938 3.746094 C 1.304688 3.746094 1.410156 3.898438 1.488281 4.011719 C 1.570312 4.125 1.609375 4.171875 1.6875 4.171875 C 1.765625 4.171875 1.804688 4.125 1.886719 4.011719 C 1.964844 3.898438 2.074219 3.746094 2.289062 3.746094 C 2.503906 3.746094 2.609375 3.898438 2.6875 4.011719 C 2.769531 4.125 2.808594 4.171875 2.886719 4.171875 C 2.964844 4.171875 3.003906 4.125 3.085938 4.011719 C 3.164062 3.898438 3.273438 3.746094 3.488281 3.746094 C 3.703125 3.746094 3.8125 3.898438 3.890625 4.011719 C 3.96875 4.125 4.007812 4.171875 4.085938 4.171875 C 4.15625 4.171875 4.210938 4.226562 4.210938 4.296875 C 4.210938 4.363281 4.15625 4.421875 4.085938 4.421875 Z M 4.085938 3.640625 C 3.871094 3.640625 3.765625 3.488281 3.6875 3.375 C 3.605469 3.261719 3.566406 3.214844 3.488281 3.214844 C 3.410156 3.214844 3.371094 3.261719 3.289062 3.375 C 3.210938 3.488281 3.101562 3.640625 2.886719 3.640625 C 2.671875 3.640625 2.5625 3.488281 2.484375 3.375 C 2.40625 3.261719 2.367188 3.214844 2.289062 3.214844 C 2.210938 3.214844 2.171875 3.261719 2.089844 3.375 C 2.007812 3.488281 1.902344 3.640625 1.6875 3.640625 C 1.472656 3.640625 1.363281 3.488281 1.285156 3.375 C 1.207031 3.261719 1.164062 3.214844 1.085938 3.214844 C 1.019531 3.214844 0.960938 3.160156 0.960938 3.089844 C 0.960938 3.023438 1.019531 2.964844 1.085938 2.964844 C 1.304688 2.964844 1.410156 3.117188 1.488281 3.230469 C 1.570312 3.34375 1.609375 3.390625 1.6875 3.390625 C 1.765625 3.390625 1.804688 3.34375 1.886719 3.230469 C 1.964844 3.117188 2.074219 2.964844 2.289062 2.964844 C 2.503906 2.964844 2.609375 3.117188 2.6875 3.230469 C 2.769531 3.34375 2.808594 3.390625 2.886719 3.390625 C 2.964844 3.390625 3.003906 3.34375 3.085938 3.230469 C 3.164062 3.117188 3.273438 2.964844 3.488281 2.964844 C 3.703125 2.964844 3.8125 3.117188 3.890625 3.230469 C 3.96875 3.34375 4.007812 3.390625 4.085938 3.390625 C 4.15625 3.390625 4.210938 3.445312 4.210938 3.515625 C 4.210938 3.585938 4.15625 3.640625 4.085938 3.640625 Z M 4.085938 3.640625 "/>
<path style=" stroke:none;fill-rule:nonzero;fill:rgb(100%,92.156863%,30.19608%);fill-opacity:1;" d="M 4.949219 1.613281 C 4.949219 1.890625 5.171875 2.113281 5.449219 2.113281 C 5.722656 2.113281 5.949219 1.890625 5.949219 1.613281 C 5.949219 1.339844 5.722656 1.113281 5.449219 1.113281 C 5.171875 1.113281 4.949219 1.339844 4.949219 1.613281 Z M 4.949219 1.613281 "/>
<path style=" stroke:none;fill-rule:nonzero;fill:rgb(60.392159%,17.647059%,18.431373%);fill-opacity:1;" d="M 5.449219 2.238281 C 5.101562 2.238281 4.824219 1.960938 4.824219 1.613281 C 4.824219 1.269531 5.101562 0.988281 5.449219 0.988281 C 5.792969 0.988281 6.074219 1.269531 6.074219 1.613281 C 6.074219 1.960938 5.792969 2.238281 5.449219 2.238281 Z M 5.449219 1.238281 C 5.242188 1.238281 5.074219 1.40625 5.074219 1.613281 C 5.074219 1.820312 5.242188 1.988281 5.449219 1.988281 C 5.65625 1.988281 5.824219 1.820312 5.824219 1.613281 C 5.824219 1.40625 5.65625 1.238281 5.449219 1.238281 Z M 5.449219 1.238281 "/>
<path style=" stroke:none;fill-rule:nonzero;fill:rgb(75.294119%,98.823529%,81.568629%);fill-opacity:1;" d="M 8.65625 6.386719 C 9.570312 6.386719 10.304688 5.648438 10.304688 4.738281 C 10.304688 3.828125 9.570312 3.089844 8.65625 3.089844 C 7.746094 3.089844 7.007812 3.828125 7.007812 4.738281 C 7.007812 5.648438 7.746094 6.386719 8.65625 6.386719 Z M 8.65625 6.386719 "/>
<path style=" stroke:none;fill-rule:nonzero;fill:rgb(100%,100%,100%);fill-opacity:1;" d="M 5.164062 9.800781 L 8.664062 4.738281 L 1.664062 4.738281 Z M 5.164062 9.800781 "/>
<path style=" stroke:none;fill-rule:nonzero;fill:rgb(100%,67.450982%,76.078433%);fill-opacity:1;" d="M 7.820312 5.957031 L 2.507812 5.957031 L 5.164062 9.800781 Z M 7.820312 5.957031 "/>
<path style=" stroke:none;fill-rule:nonzero;fill:rgb(100%,100%,100%);fill-opacity:1;" d="M 5.164062 9.582031 L 6.015625 8.351562 C 5.734375 8.429688 5.566406 8.753906 5.25 8.71875 C 4.851562 8.671875 4.875 8.125 4.582031 8.085938 C 4.53125 8.078125 4.347656 8.027344 4.144531 8.105469 Z M 5.164062 9.582031 "/>
<path style=" stroke:none;fill-rule:nonzero;fill:rgb(100%,92.156863%,30.19608%);fill-opacity:1;" d="M 12.859375 6.386719 C 13.773438 6.386719 14.507812 5.648438 14.507812 4.738281 C 14.507812 3.828125 13.773438 3.089844 12.859375 3.089844 C 11.949219 3.089844 11.210938 3.828125 11.210938 4.738281 C 11.210938 5.648438 11.949219 6.386719 12.859375 6.386719 Z M 12.859375 6.386719 "/>
<path style=" stroke:none;fill-rule:nonzero;fill:rgb(100%,100%,100%);fill-opacity:1;" d="M 9.367188 9.800781 L 12.867188 4.738281 L 5.867188 4.738281 Z M 9.367188 9.800781 "/>
<path style=" stroke:none;fill-rule:nonzero;fill:rgb(75.294119%,98.823529%,81.568629%);fill-opacity:1;" d="M 12.023438 5.957031 L 6.710938 5.957031 L 9.367188 9.800781 Z M 12.023438 5.957031 "/>
<path style=" stroke:none;fill-rule:nonzero;fill:rgb(100%,100%,100%);fill-opacity:1;" d="M 9.367188 9.582031 L 10.21875 8.351562 C 9.9375 8.429688 9.769531 8.753906 9.453125 8.71875 C 9.054688 8.671875 9.078125 8.125 8.785156 8.085938 C 8.734375 8.078125 8.550781 8.027344 8.347656 8.105469 Z M 9.367188 9.582031 "/>
<path style=" stroke:none;fill-rule:nonzero;fill:rgb(60.392159%,17.647059%,18.431373%);fill-opacity:1;" d="M 14.382812 14.738281 L 9.488281 14.738281 L 9.488281 9.847656 L 11.964844 6.265625 C 12.226562 6.421875 12.535156 6.511719 12.863281 6.511719 C 13.839844 6.511719 14.636719 5.71875 14.636719 4.738281 C 14.636719 3.761719 13.839844 2.964844 12.863281 2.964844 C 11.925781 2.964844 11.15625 3.695312 11.09375 4.613281 L 10.429688 4.613281 C 10.410156 4.339844 10.328125 4.082031 10.199219 3.859375 C 10.195312 3.855469 10.195312 3.851562 10.195312 3.851562 C 10.195312 3.847656 10.191406 3.84375 10.191406 3.84375 C 9.882812 3.320312 9.3125 2.964844 8.660156 2.964844 C 8.007812 2.964844 7.4375 3.320312 7.132812 3.84375 C 7.128906 3.847656 7.128906 3.847656 7.125 3.851562 C 7.125 3.851562 7.125 3.855469 7.125 3.859375 C 6.992188 4.082031 6.914062 4.339844 6.894531 4.613281 L 5.875 4.613281 C 5.867188 4.613281 5.863281 4.613281 5.859375 4.613281 L 1.664062 4.613281 C 1.617188 4.613281 1.578125 4.640625 1.554688 4.679688 C 1.53125 4.722656 1.535156 4.773438 1.5625 4.8125 L 5.039062 9.839844 L 5.039062 14.738281 L 1.523438 14.738281 C 1.457031 14.738281 1.398438 14.796875 1.398438 14.863281 C 1.398438 14.933594 1.457031 14.988281 1.523438 14.988281 L 14.382812 14.988281 C 14.453125 14.988281 14.507812 14.933594 14.507812 14.863281 C 14.507812 14.796875 14.453125 14.738281 14.382812 14.738281 Z M 14.222656 4.097656 C 14.226562 4.09375 14.234375 4.089844 14.238281 4.085938 C 14.332031 4.285156 14.382812 4.507812 14.382812 4.742188 C 14.382812 4.976562 14.332031 5.195312 14.238281 5.394531 C 14.234375 5.390625 14.226562 5.386719 14.222656 5.382812 L 13.109375 4.742188 Z M 14.113281 3.875 C 14.109375 3.875 14.101562 3.878906 14.097656 3.882812 L 12.984375 4.523438 L 12.984375 3.238281 C 12.984375 3.234375 12.984375 3.226562 12.984375 3.21875 C 13.453125 3.257812 13.859375 3.507812 14.113281 3.875 Z M 12.984375 6.238281 L 12.984375 4.953125 L 14.097656 5.59375 C 14.101562 5.597656 14.109375 5.601562 14.113281 5.601562 C 13.859375 5.96875 13.453125 6.21875 12.984375 6.257812 C 12.984375 6.25 12.984375 6.246094 12.984375 6.238281 Z M 9.375 9.574219 L 9.363281 9.574219 L 7.296875 6.582031 L 6.949219 6.082031 L 11.703125 6.082031 C 11.722656 6.097656 11.738281 6.113281 11.757812 6.125 Z M 12.105469 6.0625 L 12.734375 5.148438 L 12.734375 6.238281 C 12.734375 6.242188 12.734375 6.25 12.738281 6.257812 C 12.507812 6.238281 12.296875 6.171875 12.105469 6.0625 Z M 12.738281 3.21875 C 12.734375 3.226562 12.734375 3.234375 12.734375 3.242188 L 12.734375 4.523438 L 11.625 3.882812 C 11.617188 3.878906 11.613281 3.875 11.609375 3.875 C 11.859375 3.507812 12.269531 3.257812 12.738281 3.21875 Z M 11.484375 4.085938 C 11.488281 4.09375 11.496094 4.09375 11.5 4.097656 L 12.390625 4.613281 L 11.34375 4.613281 C 11.359375 4.425781 11.40625 4.25 11.484375 4.085938 Z M 10.035156 4.089844 C 10.113281 4.25 10.160156 4.429688 10.175781 4.613281 L 9.125 4.613281 Z M 8.78125 3.222656 C 9.25 3.257812 9.65625 3.507812 9.910156 3.875 L 8.78125 4.523438 Z M 8.53125 3.222656 L 8.53125 4.523438 L 7.40625 3.871094 C 7.660156 3.507812 8.066406 3.257812 8.53125 3.222656 Z M 7.28125 4.089844 L 8.191406 4.613281 L 7.140625 4.613281 C 7.15625 4.425781 7.203125 4.25 7.28125 4.089844 Z M 11.09375 4.863281 L 12.628906 4.863281 L 12.453125 5.121094 L 11.960938 5.832031 L 6.777344 5.832031 L 6.105469 4.863281 Z M 1.90625 4.863281 L 5.804688 4.863281 L 6.476562 5.832031 L 2.574219 5.832031 Z M 2.75 6.082031 L 6.648438 6.082031 L 7.085938 6.71875 L 7.117188 6.761719 L 5.1875 9.554688 C 5.179688 9.550781 5.171875 9.550781 5.164062 9.550781 C 5.15625 9.550781 5.152344 9.550781 5.144531 9.554688 Z M 5.289062 9.839844 L 7.265625 6.980469 L 9.238281 9.832031 L 9.238281 14.738281 L 5.289062 14.738281 Z M 5.289062 9.839844 "/>
</g>
</svg>
